# AST/ASF file generated using VICON BodyLanguage
# -----------------------------------------------
:version 1.10
:name VICON
:units
  mass 1.0
  length 0.45
  angle deg
:documentation
   .ast/.asf automatically generated from VICON data using
   VICON BodyBuilder and BodyLanguage model FoxedUp or BRILLIANT.MOD
:root
   order TX TY TZ RX RY RZ
   axis XYZ
   position 0 0 0  
   orientation 0 0 0 
:bonedata
  begin
     id 1 
     name lhipjoint
     direction 0.714689 -0.624256 0.315473 
     length 2.45343 
     axis 0 0 0  XYZ
  end
  begin
     id 2 
     name lfemur
     direction 0.34202 -0.939693 0  
     length 6.59069  
     axis 0 0 20  XYZ
    dof rx ry rz
    limits (-160.0 20.0)
           (-70.0 70.0)
           (-60.0 70.0)
  end
  begin
     id 3 
     name ltibia
     direction 0.34202 -0.939693 0   
     length 6.73476   
     axis 0 0 20   XYZ
    dof rx
    limits (-10.0 170.0)
  end
  begin
     id 4 
     name lfoot
     direction 0.0718085 -0.197292 0.977711   
     length 1.52607   
     axis -90 7.62852e-016 20   XYZ
    dof rx rz
    limits (-45.0 90.0)
           (-70.0 20.0)
  end
  begin
     id 5 
     name ltoes
     direction 1.53553e-011 -4.22024e-011 1   
     length 0.777832   
     axis -90 7.62852e-016 20   XYZ
    dof rx
    limits (-90.0 20.0)
  end
  begin
     id 6 
     name rhipjoint
     direction -0.727419 -0.612432 0.309497   
     length 2.50079  
     axis 0 0 0  XYZ 
  end
  begin
     id 7 
     name rfemur
     direction -0.34202 -0.939693 0   
     length 6.51665   
     axis 0 0 -20   XYZ
    dof rx ry rz
    limits (-160.0 20.0)
           (-70.0 70.0)
           (-70.0 60.0)
  end
  begin
     id 8 
     name rtibia
     direction -0.34202 -0.939693 0   
     length 6.48919   
     axis 0 0 -20   XYZ
    dof rx
    limits (-10.0 170.0)
 end
 begin
     id 9 
     name rfoot
     direction -0.112205 -0.308282 0.944655   
     length 1.68717  
     axis -90 -7.62852e-016 -20   XYZ
    dof rx rz
    limits (-45.0 90.0)
           (-20.0 70.0)
  end
  begin
     id 10 
     name rtoes
     direction -1.53583e-011 -4.21993e-011 1   
     length 0.846859   
     axis -90 -7.62852e-016 -20   XYZ
    dof rx
    limits (-90.0 20.0)
  end
  begin
     id 11 
     name lowerback
     direction -0.00119603 0.996364 -0.0851956   
     length 1.67242   
     axis 0 0 0   XYZ
    dof rx ry rz
    limits (-20.0 45.0)
           (-30.0 30.0)
           (-30.0 30.0)
  end
  begin
     id 12 
     name upperback
     direction -0.00531001 0.998318 0.0577248   
     length 1.64819   
     axis 0 0 0   XYZ
    dof rx ry rz
    limits (-20.0 45.0)
           (-30.0 30.0)
           (-30.0 30.0)
  end
  begin
     id 13 
     name thorax
     direction -0.00653676 0.995132 0.0983291   
     length 1.67429   
     axis 0 0 0   XYZ
    dof rx ry rz
    limits (-20.0 45.0)
           (-30.0 30.0)
           (-30.0 30.0)
  end
  begin
     id 14 
     name lowerneck
     direction 0.0141424 0.999886 0.00525412   
     length 1.59623   
     axis 0 0 0   XYZ
    dof rx ry rz
    limits (-20.0 45.0)
           (-30.0 30.0)
           (-30.0 30.0)
  end
  begin
     id 15 
     name upperneck
     direction -0.0640064 0.987178 -0.146232   
     length 1.59576   
     axis 0 0 0   XYZ
    dof rx ry rz
    limits (-20.0 45.0)
           (-30.0 30.0)
           (-30.0 30.0)
  end
  begin
     id 16
     name head
     direction -0.0222942 0.998496 -0.0500859  
     length 1.60959  
     axis 0 0 0   XYZ
    dof rx ry rz
    limits (-20.0 45.0)
           (-30.0 30.0)
           (-30.0 30.0)
  end
  begin
     id 17 
     name lclavicle
     direction 0.908549 0.392612 0.142806  
     length 2.80649  
     axis 0 0 0   XYZ
    dof ry rz
    limits (-20.0 10.0)
           (0.0 20.0)
  end
  begin
     id 18 
     name lhumerus
     direction 1 -4.48968e-011 1.08832e-028   
     length 4.2884   
     axis -180 -30 -90   XYZ
    dof rx ry rz
    limits (-60.0 90.0)
           (-90.0 90.0)
           (-90.0 90.0)
  end
  begin
     id 19
     name lradius
     direction 1 -4.48952e-011 -3.02642e-028   
     length 3.06552   
     axis -180 -30 -90   XYZ
    dof rx
    limits (-10.0 170.0)
  end
  begin
     id 20
     name lwrist
     direction 1 -4.49014e-011 1.58672e-027   
     length 1.53276   
     axis -1.65735e-015 90 90   XYZ
    dof ry
    limits (-180.0 0.0)
 end
  begin
     id 21 
     name lhand
     direction 1 -4.48928e-011 3.17344e-027   
     length 0.753045   
     axis -2.02492e-015 90 90   XYZ
    dof rx rz
    limits (-90.0 90.0)
           (-45.0 45.0)
  end
  begin
     id 22 
     name lfingers
     direction 1 -4.48958e-011 6.34687e-027   
     length 0.607124   
     axis -4.04985e-015 90 90   XYZ
    dof rx
    limits (0.0 90.0)
  end
  begin
     id 23
     name lthumb
     direction 0.707107 -6.34905e-011 0.707107   
     length 0.871712   
     axis -90 45 2.85299e-015   XYZ
    dof rx rz
    limits (-45.0 45.0)
           (-45.0 45.0)
  end
  begin
     id 24 
     name rclavicle
     direction -0.885098 0.45949 0.0739604   
     length 2.9478  
     axis 0 0 0   XYZ 
    dof ry rz
    limits (-10.0 20.0)
           (-20.0 0.0)
  end
  begin
     id 25 
     name rhumerus
     direction -1 -4.4898e-011 -2.61739e-027  
     length 4.52172   
     axis -180 30 90   XYZ
    dof rx ry rz
    limits (-90.0 60.0)
           (-90.0 90.0)
           (-90.0 90.0)
  end
  begin
     id 26 
     name rradius
     direction -1 -4.48945e-011 9.02552e-028   
     length 2.8914   
     axis -180 30 90   XYZ
    dof rx
    limits (-10.0 170.0)
  end
  begin
     id 27 
     name rwrist
     direction -1 -4.49018e-011 1.58672e-027   
     length 1.4457   
     axis -1.65735e-015 -90 -90   XYZ
    dof ry
    limits (-180.0 0.0)
  end
  begin
     id 28
     name rhand
     direction -1 -4.48825e-011 3.17344e-027   
     length 0.680541   
     axis -2.02492e-015 -90 -90   XYZ
    dof rx rz
    limits (-90.0 90.0)
           (-45.0 45.0)
  end
  begin
     id 29
     name rfingers
     direction -1 -4.49067e-011 6.34687e-027   
     length 0.54867   
     axis -4.04985e-015 -90 -90   XYZ
    dof rx
    limits (0.0 90.0)
  end
  begin
     id 30
     name rthumb
     direction -0.707107 -6.34833e-011 0.707107   
     length 0.787783   
     axis -90 -45 -2.85299e-015   XYZ
    dof rx rz
    limits (-45.0 45.0)
           (-45.0 45.0)
  end
:hierarchy
  begin
    root lhipjoint rhipjoint lowerback
    lhipjoint lfemur
    lfemur ltibia
    ltibia lfoot
    lfoot ltoes
    rhipjoint rfemur
    rfemur rtibia
    rtibia rfoot
    rfoot rtoes
    lowerback upperback
    upperback thorax
    thorax lowerneck lclavicle rclavicle
    lowerneck upperneck
    upperneck head
    lclavicle lhumerus
    lhumerus lradius
    lradius lwrist
    lwrist lhand lthumb
    lhand lfingers
    rclavicle rhumerus
    rhumerus rradius
    rradius rwrist
    rwrist rhand rthumb
    rhand rfingers
  end

#!OML:ASF E:\emotionWalksFemale\Project 1\Capture day 1\Session 1\Female1.ASF
:FULLY-SPECIFIED
:DEGREES
467
root 16.6719 15.0155 29.7713 188.536 44.9278 -173.147
lowerback 7.10517 4.08699 4.20375
upperback -2.56699 5.93176 0.576817
thorax -6.30403 2.77277 -2.4632
lowerneck -9.56045 -0.536653 -5.27218
upperneck 15.8202 -1.10477 9.66836
head 6.44727 0.0922165 3.91347
rclavicle -6.02255e-015 1.78906e-015
rhumerus -35.3039 15.3184 -90.1849
rradius 39.7178
rwrist 10.4037
rhand -8.38567 -55.1675
rfingers 7.12502
rthumb 17.5377 -444.396
lclavicle -6.02255e-015 1.78906e-015
lhumerus -66.4622 2.58537 69.8608
lradius 31.2119
lwrist -24.4126
lhand 8.14599 -23.3671
lfingers 7.12502
lthumb 33.3658 3.55522
rfemur 21.4224 11.5011 37.3888
rtibia -6.67916e-014
rfoot -11.5024 -24.4287
rtoes 1.94129
lfemur -44.4674 -38.2672 4.21572
ltibia 25.318
lfoot -39.4872 34.8118
ltoes 22.404
468
root 16.7863 15.0102 29.6256 188.428 45.3465 -173.067
lowerback 7.11185 4.23723 4.27649
upperback -2.52794 6.13349 0.524842
thorax -6.23983 2.87002 -2.57716
lowerneck -9.79891 -0.560435 -5.15569
upperneck 15.9678 -1.15413 9.65275
head 6.53998 0.0829306 3.88984
rclavicle 7.59264e-014 -1.09332e-015
rhumerus -35.0335 15.2095 -90.5132
rradius 39.8315
rwrist 10.2606
rhand -8.72748 -55.383
rfingers 7.12502
rthumb 17.2088 -444.641
lclavicle 7.59264e-014 -1.09332e-015
lhumerus -66.2837 3.00327 69.1626
lradius 30.9386
lwrist -24.9663
lhand 8.48433 -23.5328
lfingers 7.12502
lthumb 33.6874 3.31984
rfemur 22.2988 11.0624 37.2035
rtibia -6.36111e-014
rfoot -10.2669 -22.8866
rtoes 0.355979
lfemur -42.6343 -35.5798 1.74451
ltibia 25.0744
lfoot -31.403 35.8959
ltoes 1.91979
469
root 16.901 15.0108 29.4783 188.263 45.6731 -173.135
lowerback 7.04698 4.33814 4.28264
upperback -2.53698 6.25843 0.432472
thorax -6.19254 2.93035 -2.68395
lowerneck -9.77792 -0.530443 -4.94418
upperneck 16.014 -1.14053 9.62878
head 6.54919 0.103628 3.84839
rclavicle -4.05148e-014 -1.61016e-014
rhumerus -35.0125 15.2749 -90.9773
rradius 40.0847
rwrist 9.96375
rhand -9.15193 -55.5028
rfingers 7.12502
rthumb 16.8002 -444.796
lclavicle -4.05148e-014 -1.61016e-014
lhumerus -65.8745 3.49778 68.3912
lradius 30.3456
lwrist -25.6945
lhand 8.74302 -23.353
lfingers 7.12502
lthumb 33.9332 3.44558
rfemur 23.0636 10.5536 36.8564
rtibia 2.8625e-014
rfoot -9.90242 -22.7701
rtoes -4.38553
lfemur -40.7177 -32.0437 -1.25974
ltibia 25.0395
lfoot -26.1372 33.0483
ltoes -7.37823
470
root 17.0174 15.0089 29.3292 188.012 45.954 -173.28
lowerback 7.06977 4.41149 4.18237
upperback -2.58674 6.348 0.406152
thorax -6.25942 2.97496 -2.67081
lowerneck -9.75034 -0.515513 -5.02735
upperneck 16.1806 -1.12943 9.77739
head 6.59707 0.123689 3.91642
rclavicle -7.75788e-014 -4.96962e-015
rhumerus -35.1352 15.4433 -91.3665
rradius 40.378
rwrist 9.75234
rhand -9.09446 -55.8681
rfingers 7.12502
rthumb 16.8555 -445.157
lclavicle -7.75788e-014 -4.96962e-015
lhumerus -65.7726 3.85195 67.9114
lradius 29.9967
lwrist -26.1861
lhand 8.67785 -23.4114
lfingers 7.12502
lthumb 33.8713 3.40087
rfemur 23.8546 10.0026 36.4156
rtibia 7.95139e-014
rfoot -9.29576 -22.0851
rtoes -5.32188
lfemur -39.0566 -28.7995 -3.95318
ltibia 25.2416
lfoot -22.7338 29.6718
ltoes -14.0854
471
root 17.1354 15.0005 29.1716 187.727 46.3103 -173.322
lowerback 7.22835 4.50613 4.11069
upperback -2.65043 6.4805 0.434432
thorax -6.41959 3.03755 -2.63546
lowerneck -10.046 -0.564328 -4.98935
upperneck 16.7635 -1.1945 9.66448
head 6.84031 0.10946 3.88435
rclavicle -1.98847e-014 1.19271e-015
rhumerus -35.4124 15.6689 -91.7003
rradius 40.6701
rwrist 9.69034
rhand -8.91458 -56.1633
rfingers 7.12502
rthumb 17.0287 -445.437
lclavicle -1.98847e-014 1.19271e-015
lhumerus -66.1763 4.33179 67.3645
lradius 30.1658
lwrist -26.944
lhand 8.53579 -23.7764
lfingers 7.12502
lthumb 33.7363 3.06552
rfemur 24.8121 9.51581 36.0311
rtibia 5.725e-014
rfoot -8.18898 -20.9222
rtoes -6.40127
lfemur -37.5195 -26.3083 -6.10821
ltibia 25.6153
lfoot -20.1198 26.9042
ltoes -18.3742
472
root 17.2585 15.0022 29.0066 187.416 46.7252 -173.376
lowerback 6.94507 4.59973 4.13004
upperback -2.49663 6.58441 0.424667
thorax -6.08405 3.10057 -2.63081
lowerneck -10.0039 -0.537803 -5.08682
upperneck 16.7048 -1.15765 9.76807
head 6.81164 0.127447 3.93651
rclavicle -2.33261e-015 -2.78299e-015
rhumerus -35.4681 16.0175 -92.0246
rradius 40.8875
rwrist 9.52255
rhand -8.88474 -55.8896
rfingers 7.12502
rthumb 17.0574 -445.161
lclavicle -2.33261e-015 -2.78299e-015
lhumerus -66.481 5.69166 66.2374
lradius 30.3978
lwrist -28.5094
lhand 8.40183 -23.9254
lfingers 7.12502
lthumb 33.609 2.94433
rfemur 25.7979 9.09582 35.6016
rtibia -1.59028e-014
rfoot -6.16009 -19.2377
rtoes -5.1152
lfemur -36.1747 -24.6404 -7.71558
ltibia 26.0681
lfoot -18.0505 24.6689
ltoes -16.8876
473
root 17.383 15.023 28.8403 187.19 46.9545 -173.386
lowerback 6.91626 4.6534 4.11148
upperback -2.58843 6.66063 0.462607
thorax -6.16649 3.13669 -2.59214
lowerneck -10.0085 -0.570189 -5.03797
upperneck 16.9821 -1.20481 9.71639
head 6.90475 0.114317 3.91455
rclavicle -8.56793e-015 -3.18055e-015
rhumerus -35.7945 16.1006 -92.334
rradius 40.9163
rwrist 9.40866
rhand -8.96148 -55.5193
rfingers 7.12502
rthumb 16.9835 -444.797
lclavicle -8.56793e-015 -3.18055e-015
lhumerus -66.1197 5.21217 66.5566
lradius 30.2156
lwrist -27.7341
lhand 8.44249 -23.583
lfingers 7.12502
lthumb 33.6476 3.27826
rfemur 26.6506 8.53593 35.1688
rtibia -2.8625e-014
rfoot -5.0217 -18.9671
rtoes -10.2341
lfemur -35.2281 -23.949 -8.64469
ltibia 26.5134
lfoot -16.3896 23.5155
ltoes -15.3031
474
root 17.5034 15.0445 28.6759 186.952 47.0331 -173.358
lowerback 6.93467 4.69538 4.20362
upperback -2.59239 6.72535 0.446421
thorax -6.16472 3.16447 -2.66777
lowerneck -10.1075 -0.632467 -4.85371
upperneck 17.1846 -1.31152 9.65387
head 6.99536 0.0798758 3.85946
rclavicle 1.93124e-014 -1.45113e-014
rhumerus -35.7589 15.7757 -92.5118
rradius 40.6915
rwrist 9.55437
rhand -8.86186 -55.4839
rfingers 7.12502
rthumb 17.0794 -444.753
lclavicle 1.93124e-014 -1.45113e-014
lhumerus -65.5342 5.19365 66.554
lradius 30.0409
lwrist -27.6215
lhand 8.69841 -23.1566
lfingers 7.12502
lthumb 33.8908 3.65134
rfemur 27.4516 7.83921 34.7509
rtibia -6.36111e-015
rfoot -3.24209 -18.0123
rtoes -10.9593
lfemur -34.4474 -23.5768 -9.36061
ltibia 26.8835
lfoot -14.5247 22.9202
ltoes -13.0757
475
root 17.6237 15.0675 28.5102 186.513 47.1982 -173.542
lowerback 7.07048 4.63638 4.14355
upperback -2.75241 6.65777 0.468621
thorax -6.42638 3.12393 -2.62803
lowerneck -9.67238 -0.529726 -4.88212
upperneck 17.4026 -1.16195 9.64825
head 6.97524 0.154076 3.87843
rclavicle -1.07983e-013 -4.37326e-015
rhumerus -36.2174 15.743 -92.8271
rradius 40.5507
rwrist 9.70448
rhand -8.65423 -55.2645
rfingers 7.12502
rthumb 17.2792 -444.516
lclavicle -1.07983e-013 -4.37326e-015
lhumerus -65.5884 5.67727 66.1966
lradius 29.9865
lwrist -28.104
lhand 9.10272 -23.0452
lfingers 7.12502
lthumb 34.2748 3.67718
rfemur 28.2722 7.21588 34.1509
rtibia -3.81667e-014
rfoot -0.825661 -16.8163
rtoes -10.3017
lfemur -33.469 -23.0908 -10.3056
ltibia 27.1449
lfoot -12.5045 22.9057
ltoes -16.4662
476
root 17.7492 15.1031 28.3414 185.86 47.4425 -174.088
lowerback 7.0386 4.64476 3.81631
upperback -2.80541 6.62872 0.361011
thorax -6.48893 3.11758 -2.55782
lowerneck -9.65069 -0.494837 -4.83372
upperneck 17.7589 -1.12709 9.68258
head 7.08314 0.192462 3.89458
rclavicle -7.47011e-014 -2.98177e-015
rhumerus -36.4441 15.5281 -93.1467
rradius 40.3451
rwrist 9.7324
rhand -9.0286 -54.5991
rfingers 7.12502
rthumb 16.9189 -443.882
lclavicle -7.47011e-014 -2.98177e-015
lhumerus -65.2717 6.0297 65.9926
lradius 29.8136
lwrist -28.4417
lhand 9.01261 -23.1328
lfingers 7.12502
lthumb 34.1892 3.60872
rfemur 28.9836 6.67862 33.2535
rtibia -6.99722e-014
rfoot 2.32938 -15.5321
rtoes -11.1483
lfemur -32.3 -22.568 -11.5322
ltibia 27.2965
lfoot -11.14 22.6564
ltoes -15.999
477
root 17.8752 15.1436 28.1714 185.036 47.6366 -174.853
lowerback 6.85498 4.60603 3.29569
upperback -2.65341 6.50704 0.321142
thorax -6.28118 3.085 -2.2751
lowerneck -10.0136 -0.468215 -4.97481
upperneck 18.1047 -1.06346 9.60162
head 7.25511 0.219607 3.90965
rclavicle 4.09062e-015 -3.8763e-015
rhumerus -36.2763 15.6702 -93.3288
rradius 39.924
rwrist 9.69336
rhand -8.85735 -55.5715
rfingers 7.12502
rthumb 17.0837 -444.84
lclavicle 4.09062e-015 -3.8763e-015
lhumerus -64.5897 6.63268 66.1276
lradius 29.6078
lwrist -28.3898
lhand 8.52834 -23.2704
lfingers 7.12502
lthumb 33.7292 3.57302
rfemur 26.4769 6.03985 32.146
rtibia 6.28919
rfoot 2.70303 -14.3315
rtoes -9.50628
lfemur -30.952 -21.3879 -13.1785
ltibia 27.3583
lfoot -9.55111 21.6439
ltoes -16.2084
478
root 17.999 15.1808 28.0048 184.257 47.7759 -175.541
lowerback 6.72687 4.64476 3.008
upperback -2.63242 6.51167 0.13233
thorax -6.19407 3.09662 -2.29986
lowerneck -10.0131 -0.500922 -4.73063
upperneck 18.4633 -1.11182 9.38105
head 7.37417 0.207952 3.80049
rclavicle 1.043e-013 5.76476e-015
rhumerus -36.6194 15.2693 -93.6206
rradius 39.8124
rwrist 9.94737
rhand -8.91832 -55.3254
rfingers 7.12502
rthumb 17.0251 -444.599
lclavicle 1.043e-013 5.76476e-015
lhumerus -63.9379 6.65222 66.3339
lradius 29.6163
lwrist -28.2784
lhand 8.49514 -23.3419
lfingers 7.12502
lthumb 33.6977 3.50845
rfemur 23.2265 5.35218 30.9807
rtibia 13.947
rfoot 2.38308 -13.3382
rtoes -7.09437
lfemur -29.6017 -19.9507 -14.7482
ltibia 27.3356
lfoot -8.35463 20.1033
ltoes -16.9217
479
root 18.124 15.2193 27.846 183.726 47.9626 -175.994
lowerback 6.57299 4.72749 2.72532
upperback -2.62941 6.58299 0.0219528
thorax -6.11694 3.14275 -2.25193
lowerneck -9.95655 -0.485564 -4.59254
upperneck 18.506 -1.12427 9.47004
head 7.37884 0.224145 3.80675
rclavicle -5.97255e-014 -5.96354e-015
rhumerus -36.7787 14.7137 -93.7087
rradius 39.4372
rwrist 10.2628
rhand -8.83288 -54.7762
rfingers 7.12502
rthumb 17.1073 -444.043
lclavicle -5.97255e-014 -5.96354e-015
lhumerus -63.0532 6.40833 66.8466
lradius 29.5829
lwrist -28.1815
lhand 8.67894 -23.3382
lfingers 7.12502
lthumb 33.8723 3.47381
rfemur 20.7844 4.30371 29.7176
rtibia 19.5472
rfoot 3.43127 -12.2061
rtoes -6.22133
lfemur -28.439 -19.1969 -15.7403
ltibia 27.2279
lfoot -7.99304 18.7891
ltoes -15.5666
480
root 18.2438 15.2556 27.6866 183.196 48.0505 -176.376
lowerback 6.52497 4.76437 2.48605
upperback -2.62905 6.60754 0.00265958
thorax -6.11202 3.164 -2.1393
lowerneck -9.97278 -0.484485 -4.38835
upperneck 18.7151 -1.12474 9.28292
head 7.44888 0.229923 3.7155
rclavicle -7.51033e-015 1.41137e-014
rhumerus -37.0727 14.4108 -93.6604
rradius 39.203
rwrist 10.2351
rhand -8.54259 -54.4339
rfingers 7.12502
rthumb 17.3867 -443.676
lclavicle -7.51033e-015 1.41137e-014
lhumerus -62.0851 6.13162 67.6078
lradius 29.5125
lwrist -27.9672
lhand 8.24128 -23.4973
lfingers 7.12502
lthumb 33.4564 3.40548
rfemur 18.6115 3.2622 28.5027
rtibia 24.5143
rfoot 5.25636 -11.0985
rtoes -5.0522
lfemur -27.2633 -18.9662 -16.5835
ltibia 27.096
lfoot -7.73709 17.8417
ltoes -14.1869
